<svg xmlns="http://www.w3.org/2000/svg" width="372" height="75" viewBox="0 0 372 75" version="1.1"><path d="M 209.250 13.716 C 210.762 13.945, 213.238 13.945, 214.750 13.716 C 216.262 13.487, 215.025 13.300, 212 13.300 C 208.975 13.300, 207.738 13.487, 209.250 13.716 M 349.250 13.716 C 350.762 13.945, 353.238 13.945, 354.750 13.716 C 356.262 13.487, 355.025 13.300, 352 13.300 C 348.975 13.300, 347.738 13.487, 349.250 13.716 M 8.250 14.739 C 11.412 14.937, 16.587 14.937, 19.750 14.739 C 22.912 14.541, 20.325 14.378, 14 14.378 C 7.675 14.378, 5.087 14.541, 8.250 14.739 M 66.035 15.934 C 65.466 16.998, 65.036 18.461, 65.079 19.184 C 65.122 19.908, 65.601 19.290, 66.142 17.811 C 66.683 16.332, 67.885 14.922, 68.813 14.677 C 70.372 14.266, 70.370 14.223, 68.785 14.116 C 67.842 14.052, 66.605 14.870, 66.035 15.934 M 101.233 40.237 C 101.478 64.306, 101.645 66.501, 103.250 66.810 C 104.881 67.124, 104.984 65.591, 104.770 44.323 L 104.540 21.500 104.251 43.750 C 104.073 57.431, 103.584 66, 102.981 66 C 102.365 66, 102 56.502, 102 40.500 L 102 15 104.212 15 C 105.429 15, 107.491 16.238, 108.795 17.750 L 111.165 20.500 109.015 17.250 C 107.396 14.804, 106.134 14, 103.915 14 L 100.967 14 101.233 40.237 M 138.750 14.662 C 140.424 15.338, 140.582 66, 138.910 66 C 138.311 66, 136.934 64.987, 135.851 63.750 L 133.881 61.500 135.556 64.250 C 136.477 65.763, 138.078 67, 139.115 67 C 140.914 67, 141 65.794, 141 40.500 C 141 15.898, 140.875 14.006, 139.250 14.079 C 138.205 14.126, 138.003 14.361, 138.750 14.662 M 154.250 14.689 C 155.213 14.941, 156.787 14.941, 157.750 14.689 C 158.713 14.438, 157.925 14.232, 156 14.232 C 154.075 14.232, 153.287 14.438, 154.250 14.689 M 222.565 15.890 C 228.289 18.490, 233.340 23.210, 235.482 27.961 C 236.489 30.194, 237.499 31.834, 237.726 31.607 C 238.518 30.816, 234.164 23.482, 231.342 20.852 C 227.726 17.482, 221.943 14.002, 220 14.026 C 219.175 14.036, 220.329 14.875, 222.565 15.890 M 241 16 C 241 17.843, 241.667 18, 249.500 18 L 258 18 258 42.563 L 258 67.127 261.250 66.813 L 264.500 66.500 264.768 42.293 L 265.035 18.087 272.257 17.793 C 278.201 17.552, 279.538 17.190, 279.813 15.750 C 280.122 14.132, 278.675 14, 260.573 14 C 241.667 14, 241 14.068, 241 16 M 285.226 32.750 L 285.452 51.500 285.748 33.314 L 286.045 15.129 288.772 14.714 C 291.284 14.333, 291.242 14.288, 288.250 14.150 L 285 14 285.226 32.750 M 323.225 32.177 L 323.451 50.500 323.748 32.750 C 324.054 14.504, 325.628 8.433, 326.274 23.003 L 326.629 31.006 326.565 22.764 C 326.510 15.739, 326.242 14.473, 324.750 14.188 C 323.128 13.878, 323.017 15.197, 323.225 32.177 M 340.535 17.104 C 338.591 18.811, 337.007 20.948, 337.015 21.854 C 337.025 22.954, 337.444 22.681, 338.279 21.030 C 338.967 19.672, 341.052 17.534, 342.912 16.280 C 344.773 15.026, 345.795 14, 345.183 14 C 344.570 14, 342.479 15.397, 340.535 17.104 M 242 16 C 242 16.588, 245.500 17, 250.500 17 L 259 17 259 41.500 L 259 66 261.500 66 L 264 66 264 41.500 L 264 17 271.500 17 C 275.833 17, 279 16.578, 279 16 C 279 15.369, 272.167 15, 260.500 15 C 248.833 15, 242 15.369, 242 16 M 194.858 19.250 C 192.947 21.038, 192.310 21.783, 193.442 20.906 C 194.574 20.030, 196.613 18.567, 197.973 17.656 C 199.332 16.745, 199.970 16, 199.389 16 C 198.808 16, 196.770 17.462, 194.858 19.250 M 208.750 16.723 C 210.537 16.945, 213.463 16.945, 215.250 16.723 C 217.037 16.502, 215.575 16.320, 212 16.320 C 208.425 16.320, 206.963 16.502, 208.750 16.723 M 352.548 16.902 C 355.874 17.231, 359.812 18.298, 361.298 19.273 C 362.784 20.248, 364 20.804, 364 20.508 C 364 20.213, 362.538 19.079, 360.750 17.989 C 358.431 16.575, 355.924 16.050, 352 16.156 L 346.500 16.305 352.548 16.902 M 23.500 18.257 C 26.437 19.196, 27.965 20.461, 29.248 23.018 C 30.210 24.933, 30.998 25.738, 30.998 24.806 C 31.001 21.934, 26.736 18.032, 23 17.488 C 19.549 16.986, 19.556 16.996, 23.500 18.257 M 219.083 17.303 C 219.313 17.469, 220.850 18.396, 222.500 19.362 L 225.500 21.119 223.139 19.059 C 221.841 17.927, 220.303 17, 219.723 17 C 219.142 17, 218.854 17.136, 219.083 17.303 M 343.494 19.006 C 342.496 20.110, 341.864 21.190, 342.089 21.408 C 342.315 21.626, 343.309 20.723, 344.297 19.402 C 346.479 16.484, 345.994 16.245, 343.494 19.006 M 197.872 21.750 C 196.603 23.369, 196.650 23.390, 198.500 22.033 C 199.600 21.226, 200.688 20.439, 200.917 20.283 C 201.146 20.127, 200.863 20, 200.289 20 C 199.715 20, 198.627 20.788, 197.872 21.750 M 35.471 26.345 C 35.455 29.180, 35.086 32.400, 34.652 33.500 C 34.198 34.649, 34.515 34.436, 35.395 33 C 36.979 30.419, 37.577 22.475, 36.250 21.655 C 35.837 21.400, 35.487 23.511, 35.471 26.345 M 63.624 22.539 C 62.659 25.053, 62.943 25.702, 64.122 23.675 C 64.706 22.671, 64.973 21.639, 64.715 21.382 C 64.458 21.124, 63.966 21.645, 63.624 22.539 M 62.711 32.750 C 60.159 39.213, 57.782 45.288, 57.429 46.250 C 56.838 47.859, 57.703 47.984, 68.143 47.802 L 79.500 47.605 68.849 47.052 L 58.198 46.500 62.782 35 C 65.303 28.675, 67.733 23.350, 68.183 23.167 C 69.249 22.732, 69.243 21, 68.175 21 C 67.722 21, 65.263 26.287, 62.711 32.750 M 291.286 25.500 C 291.294 28.250, 291.488 29.256, 291.718 27.736 C 291.947 26.216, 291.941 23.966, 291.704 22.736 C 291.467 21.506, 291.279 22.750, 291.286 25.500 M 228.701 26.581 C 230.554 29.896, 231.510 33.520, 232.072 39.355 L 232.855 47.500 232.593 39.500 C 232.342 31.815, 229.890 24.286, 227.071 22.544 C 226.545 22.219, 227.278 24.035, 228.701 26.581 M 69.031 24.500 C 69.031 25.050, 69.467 26.175, 70 27 C 70.533 27.825, 70.969 28.050, 70.969 27.500 C 70.969 26.950, 70.533 25.825, 70 25 C 69.467 24.175, 69.031 23.950, 69.031 24.500 M 188.980 25.524 C 188.284 26.362, 187.909 27.242, 188.145 27.479 C 188.382 27.715, 189.125 27.030, 189.796 25.955 C 191.248 23.630, 190.764 23.375, 188.980 25.524 M 5 26.827 C 5 27.282, 6.350 27.455, 8 27.213 C 11.856 26.647, 11.856 26, 8 26 C 6.350 26, 5 26.372, 5 26.827 M 61.624 27.539 C 60.659 30.053, 60.943 30.702, 62.122 28.675 C 62.706 27.671, 62.973 26.639, 62.715 26.382 C 62.458 26.124, 61.966 26.645, 61.624 27.539 M 30.019 30.444 C 29.336 32.512, 27.712 34.632, 26.169 35.470 C 24.701 36.268, 23.867 36.938, 24.316 36.960 C 26.442 37.064, 29.309 34.504, 30.643 31.311 C 31.454 29.371, 31.911 27.577, 31.658 27.325 C 31.406 27.073, 30.668 28.476, 30.019 30.444 M 113.617 34.441 C 116.707 38.598, 119.434 42, 119.677 42 C 120.658 42, 110.777 28.598, 108.975 27.484 C 108.438 27.153, 110.527 30.283, 113.617 34.441 M 77.042 28.617 C 76.987 30.070, 81.177 40.156, 81.642 39.691 C 81.838 39.495, 80.893 36.672, 79.541 33.418 C 78.190 30.163, 77.066 28.002, 77.042 28.617 M 71.503 30.500 C 73.579 36.506, 76.343 42.990, 76.682 42.652 C 77.181 42.152, 73.335 31.973, 71.901 30 C 71.019 28.786, 70.943 28.882, 71.503 30.500 M 337.004 30.673 C 336.998 32.508, 341.934 37.915, 345.119 39.562 C 349.160 41.651, 348.719 40.621, 344.509 38.138 C 342.589 37.005, 340.116 34.598, 339.013 32.789 C 337.910 30.980, 337.006 30.028, 337.004 30.673 M 29.500 37.068 C 27.663 38.245, 27.118 38.992, 28.095 38.995 C 28.972 38.998, 30.505 38.100, 31.500 37 C 33.699 34.571, 33.382 34.581, 29.500 37.068 M 124.521 39.896 C 126.537 42.703, 128.392 45, 128.642 45 C 129.329 45, 123.131 36.199, 121.914 35.447 C 121.331 35.086, 122.504 37.088, 124.521 39.896 M 185.286 40.500 C 185.294 43.250, 185.488 44.256, 185.718 42.736 C 185.947 41.216, 185.941 38.966, 185.704 37.736 C 185.467 36.506, 185.279 37.750, 185.286 40.500 M 353 36.342 C 353 36.599, 355.489 38.214, 358.530 39.930 C 361.572 41.647, 364.945 44.502, 366.027 46.276 C 367.108 48.049, 367.994 48.972, 367.996 48.327 C 368.003 46.129, 363.178 41.415, 358.083 38.642 C 355.287 37.120, 353 36.085, 353 36.342 M 13.768 37.725 C 15.565 37.947, 18.265 37.943, 19.768 37.715 C 21.271 37.486, 19.800 37.304, 16.500 37.310 C 13.200 37.315, 11.971 37.502, 13.768 37.725 M 326.286 41.500 C 326.294 44.250, 326.488 45.256, 326.718 43.736 C 326.947 42.216, 326.941 39.966, 326.704 38.736 C 326.467 37.506, 326.279 38.750, 326.286 41.500 M 33.633 40.918 C 37.350 43.184, 39.969 46.661, 40.079 49.473 C 40.124 50.629, 40.382 50.941, 40.679 50.199 C 41.567 47.984, 39.116 43.607, 35.668 41.250 C 33.857 40.013, 31.954 39.002, 31.438 39.004 C 30.922 39.006, 31.910 39.867, 33.633 40.918 M 14.776 40.733 C 17.128 40.945, 20.728 40.942, 22.776 40.727 C 24.824 40.512, 22.900 40.339, 18.500 40.343 C 14.100 40.346, 12.424 40.522, 14.776 40.733 M 29.039 42.461 C 31.590 43.850, 33.523 46.785, 34.332 50.500 C 34.640 51.911, 34.802 51.667, 34.884 49.673 C 35.007 46.679, 30.335 40.964, 27.827 41.040 C 27.097 41.062, 27.643 41.702, 29.039 42.461 M 82.071 41.230 C 81.956 42.414, 85.214 50.120, 85.646 49.687 C 85.864 49.470, 85.164 47.313, 84.092 44.896 C 83.019 42.478, 82.109 40.828, 82.071 41.230 M 354.476 44.236 C 362.279 49.228, 364.820 54.957, 361.398 59.842 C 360.517 61.100, 360.034 62.367, 360.324 62.658 C 361.173 63.507, 364 57.331, 364 54.626 C 364 51.544, 359.775 46.407, 355.631 44.450 C 353.909 43.637, 353.389 43.540, 354.476 44.236 M 54.624 45.539 C 53.659 48.053, 53.943 48.702, 55.122 46.675 C 55.706 45.671, 55.973 44.639, 55.715 44.382 C 55.458 44.124, 54.966 44.645, 54.624 45.539 M 192.158 47 C 192.158 48.375, 192.385 48.938, 192.662 48.250 C 192.940 47.563, 192.940 46.438, 192.662 45.750 C 192.385 45.063, 192.158 45.625, 192.158 47 M 291.070 48.083 C 291.109 49.962, 291.531 52.400, 292.007 53.500 C 292.565 54.787, 292.668 53.717, 292.296 50.500 C 291.609 44.554, 290.972 43.298, 291.070 48.083 M 52.667 49.667 C 52.300 50.033, 52.014 51.046, 52.030 51.917 C 52.055 53.217, 52.251 53.174, 53.122 51.675 C 54.199 49.823, 53.887 48.447, 52.667 49.667 M 368.252 53.500 C 368.263 55.700, 368.468 56.482, 368.707 55.238 C 368.946 53.994, 368.937 52.194, 368.687 51.238 C 368.437 50.282, 368.241 51.300, 368.252 53.500 M 128.241 54.488 C 129.483 56.406, 130.860 57.981, 131.301 57.988 C 131.741 57.994, 130.900 56.425, 129.432 54.500 C 126 50, 125.329 49.993, 128.241 54.488 M 189.172 54.953 C 191.377 59.171, 198.858 66, 201.274 66 C 201.888 66, 200.254 64.645, 197.643 62.988 C 195.031 61.332, 192.130 58.598, 191.197 56.913 C 188.377 51.822, 186.673 50.173, 189.172 54.953 M 321.712 53.843 C 321.328 55.681, 319.547 58.593, 317.756 60.314 C 315.294 62.680, 315.109 63.056, 317 61.856 C 320.113 59.881, 323.279 54.635, 322.784 52.274 C 322.551 51.165, 322.149 51.753, 321.712 53.843 M 54.624 53.539 C 53.659 56.053, 53.943 56.702, 55.122 54.675 C 55.706 53.671, 55.973 52.639, 55.715 52.382 C 55.458 52.124, 54.966 52.645, 54.624 53.539 M 235.538 53.880 C 235.184 54.997, 232.555 58.024, 229.697 60.607 C 226.839 63.190, 225.400 64.813, 226.500 64.214 C 230.858 61.840, 237.962 53.629, 236.727 52.393 C 236.427 52.094, 235.893 52.763, 235.538 53.880 M 34 55.077 C 34 56.219, 32.685 58.469, 31.077 60.077 C 29.469 61.685, 28.529 63, 28.988 63 C 30.466 63, 35 56.909, 35 54.923 C 35 53.865, 34.775 53, 34.500 53 C 34.225 53, 34 53.935, 34 55.077 M 50.345 55.543 C 50.019 56.392, 49.976 57.310, 50.249 57.583 C 50.523 57.856, 50.986 57.161, 51.279 56.040 C 51.903 53.657, 51.210 53.289, 50.345 55.543 M 39.731 56.920 C 39.296 58.583, 39.426 58.974, 40.168 58.232 C 40.750 57.650, 41.028 56.585, 40.788 55.863 C 40.538 55.114, 40.085 55.568, 39.731 56.920 M 225.119 59.378 C 223.318 61.235, 220.417 63.252, 218.673 63.859 L 215.500 64.962 218.500 64.422 C 220.925 63.986, 230.817 56, 228.931 56 C 228.635 56, 226.919 57.520, 225.119 59.378 M 293.913 57.672 C 296.590 63.084, 305.772 66.413, 311.687 64.117 C 314.256 63.120, 314.141 63.073, 310.363 63.581 C 304.329 64.393, 298.566 62.513, 295.472 58.726 C 293.994 56.915, 293.309 56.453, 293.913 57.672 M 196 57.313 C 196 57.485, 197.463 58.948, 199.250 60.563 L 202.500 63.500 199.563 60.250 C 196.825 57.221, 196 56.540, 196 57.313 M 48.624 60.539 C 47.659 63.053, 47.943 63.702, 49.122 61.675 C 49.706 60.671, 49.973 59.639, 49.715 59.382 C 49.458 59.124, 48.966 59.645, 48.624 60.539 M 36.405 62.250 L 34.500 64.500 36.750 62.595 C 38.864 60.805, 39.455 60, 38.655 60 C 38.465 60, 37.453 61.013, 36.405 62.250 M 319.924 62.750 L 317.500 65.500 320.250 63.076 C 321.762 61.742, 323 60.505, 323 60.326 C 323 59.541, 322.190 60.180, 319.924 62.750 M 336 61.975 C 336 62.500, 336.900 63.411, 338 64 C 339.100 64.589, 340 64.930, 340 64.757 C 340 64.585, 339.100 63.674, 338 62.732 C 336.900 61.790, 336 61.449, 336 61.975 M 342 62.239 C 342.825 63.135, 344.850 64.126, 346.500 64.440 L 349.500 65.012 346.500 63.872 C 344.850 63.245, 342.825 62.254, 342 61.670 C 340.667 60.727, 340.667 60.791, 342 62.239 M 14.750 63.732 C 17.087 63.943, 20.912 63.943, 23.250 63.732 C 25.587 63.522, 23.675 63.349, 19 63.349 C 14.325 63.349, 12.412 63.522, 14.750 63.732 M 170.498 63.732 C 176.824 63.914, 182 64.487, 182 65.005 C 182 65.537, 175.590 66.079, 167.250 66.252 L 152.500 66.558 167.823 66.779 C 181.945 66.983, 183.120 66.863, 182.811 65.250 C 182.515 63.705, 181.099 63.494, 170.736 63.450 L 158.997 63.400 170.498 63.732 M 204.500 64 C 205.600 64.473, 207.175 64.859, 208 64.859 C 208.945 64.859, 208.761 64.542, 207.500 64 C 206.400 63.527, 204.825 63.141, 204 63.141 C 203.055 63.141, 203.239 63.458, 204.500 64 M 356 64 C 355.175 64.533, 354.950 64.969, 355.500 64.969 C 356.050 64.969, 357.175 64.533, 358 64 C 358.825 63.467, 359.050 63.031, 358.500 63.031 C 357.950 63.031, 356.825 63.467, 356 64 M 47.015 65.250 C 47.006 66.338, 47.756 67, 49 67 C 50.100 67, 51 66.523, 51 65.941 C 51 65.359, 50.500 65.191, 49.888 65.569 C 49.277 65.947, 48.384 65.636, 47.904 64.878 C 47.213 63.788, 47.027 63.866, 47.015 65.250 M 85.251 65 C 85.685 66.615, 93 67.779, 93 66.234 C 93 65.746, 91.600 65.552, 89.889 65.803 C 87.932 66.090, 86.420 65.748, 85.813 64.880 C 85.018 63.744, 84.919 63.765, 85.251 65 M 314 66 C 313.175 66.533, 312.950 66.969, 313.500 66.969 C 314.050 66.969, 315.175 66.533, 316 66 C 316.825 65.467, 317.050 65.031, 316.500 65.031 C 315.950 65.031, 314.825 65.467, 314 66 M 10.750 66.740 C 14.188 66.936, 19.813 66.936, 23.250 66.740 C 26.688 66.545, 23.875 66.385, 17 66.385 C 10.125 66.385, 7.313 66.545, 10.750 66.740 M 207.750 67.662 C 208.438 67.940, 209.563 67.940, 210.250 67.662 C 210.938 67.385, 210.375 67.158, 209 67.158 C 207.625 67.158, 207.063 67.385, 207.750 67.662 M 213.250 67.689 C 214.213 67.941, 215.787 67.941, 216.750 67.689 C 217.713 67.438, 216.925 67.232, 215 67.232 C 213.075 67.232, 212.287 67.438, 213.250 67.689 M 303.250 67.716 C 304.762 67.945, 307.238 67.945, 308.750 67.716 C 310.262 67.487, 309.025 67.300, 306 67.300 C 302.975 67.300, 301.738 67.487, 303.250 67.716 M 353.269 67.693 C 354.242 67.947, 355.592 67.930, 356.269 67.656 C 356.946 67.382, 356.150 67.175, 354.500 67.195 C 352.850 67.215, 352.296 67.439, 353.269 67.693" stroke="none" fill="#d8cbb5" fill-rule="evenodd"/><path d="M 68.950 14.711 C 68.056 14.918, 65.871 18.970, 63.787 24.285 C 61.799 29.353, 57.379 40.608, 53.965 49.295 C 50.550 57.982, 48.044 65.377, 48.395 65.728 C 49.451 66.784, 50.593 64.867, 53.464 57.220 L 56.198 49.940 68.228 50.220 L 80.258 50.500 83.283 58.250 C 86.071 65.393, 86.531 66, 89.154 66 C 90.719 66, 92 65.793, 92 65.540 C 92 65.288, 89.818 60, 87.152 53.790 C 81.930 41.630, 78.727 33.699, 74.395 22.199 C 71.442 14.362, 71.300 14.167, 68.950 14.711 M 200.195 16.590 C 190.292 21.525, 185.336 30.877, 186.259 42.884 C 187.388 57.560, 197.656 67.163, 212.171 67.117 C 220.758 67.090, 226.138 64.743, 231.868 58.527 C 244.146 45.207, 239.394 23.569, 222.500 15.867 C 216.330 13.055, 206.661 13.368, 200.195 16.590 M 343.015 16.184 C 338.941 18.961, 337.035 22.271, 337.015 26.602 C 336.991 31.637, 340.820 36.098, 349.027 40.596 C 358.484 45.779, 364 50.881, 364 54.447 C 364 58.479, 361.441 62.575, 358.042 63.983 C 353.536 65.849, 344.534 64.850, 341.678 62.167 C 339.079 59.726, 337 59.347, 337 61.316 C 337 62.040, 338.877 63.686, 341.170 64.976 C 349.231 69.506, 362.049 67.247, 366.114 60.580 C 368.535 56.611, 368.513 50.353, 366.064 46.338 C 364.502 43.776, 353.439 36, 351.356 36 C 351.061 36, 349.069 34.763, 346.929 33.250 C 340.431 28.657, 339.620 21.481, 345.159 17.601 C 348.758 15.080, 356.980 15.497, 361.285 18.418 C 364.129 20.348, 364.958 20.551, 365.392 19.420 C 366.346 16.934, 361.336 14.720, 353.690 14.250 C 347.348 13.859, 346.089 14.087, 343.015 16.184 M 3.550 15.918 C 4.072 16.423, 9.291 16.985, 15.148 17.168 C 27.161 17.543, 29.229 18.549, 30.973 24.866 C 31.753 27.688, 31.597 29.170, 30.229 31.966 C 28.196 36.120, 24.131 37.859, 16.250 37.944 L 11 38 11 32.434 C 11 26.951, 10.959 26.872, 8.250 27.184 L 5.500 27.500 5.270 46.750 L 5.040 66 17.872 66 C 29.534 66, 31.014 65.794, 34.102 63.737 C 43.891 57.217, 42.010 43.478, 30.805 39.656 L 27.110 38.396 30.437 36.604 C 34.280 34.534, 36 31.375, 36 26.387 C 36 17.845, 30.610 15.054, 14.050 15.022 C 7.077 15.009, 2.971 15.359, 3.550 15.918 M 102 40.500 C 102 56.833, 102.359 66, 103 66 C 103.635 66, 104.015 57.890, 104.041 43.750 L 104.081 21.500 107.137 25 C 110.570 28.933, 115.394 35.361, 128.500 53.466 C 133.450 60.305, 138.063 65.922, 138.750 65.950 C 139.719 65.989, 140 60.260, 140 40.500 C 140 24.167, 139.641 15, 139 15 C 138.365 15, 138 22.698, 138 36.095 L 138 57.189 134.497 52.996 C 132.570 50.690, 125.512 41.198, 118.813 31.902 C 109.086 18.406, 106.164 15, 104.316 15 L 102 15 102 40.500 M 153 40.500 L 153 66 167.500 66 C 176.500 66, 182 65.621, 182 65 C 182 64.391, 177.500 64, 170.500 64 L 159 64 159 39.500 L 159 15 156 15 L 153 15 153 40.500 M 242 16 C 242 16.588, 245.500 17, 250.500 17 L 259 17 259 41.500 L 259 66 261.500 66 L 264 66 264 41.500 L 264 17 271.500 17 C 275.833 17, 279 16.578, 279 16 C 279 15.369, 272.167 15, 260.500 15 C 248.833 15, 242 15.369, 242 16 M 286.176 35.250 C 286.481 54.312, 286.634 55.716, 288.788 59.179 C 294.551 68.448, 313.068 69.973, 320.716 61.809 C 325.069 57.162, 326 52.065, 326 32.874 C 326 22.832, 325.602 15, 325.092 15 C 324.591 15, 324.031 23.635, 323.842 34.250 C 323.538 51.377, 323.277 53.886, 321.477 57 C 318.510 62.134, 311.873 65.289, 305.514 64.588 C 299.347 63.908, 296.157 61.669, 293.250 55.980 C 291.159 51.888, 291 50.282, 291 33.288 L 291 15 288.426 15 L 285.853 15 286.176 35.250 M 205 16.820 C 200.984 18.640, 197.676 21.697, 195.258 25.822 C 193.079 29.541, 192.524 31.917, 192.186 38.982 C 191.837 46.284, 192.117 48.402, 194.013 52.810 C 198.107 62.326, 204.230 65.726, 215.578 64.785 C 220.134 64.407, 221.667 63.751, 224.620 60.915 C 230.864 54.918, 232.486 50.708, 232.486 40.500 C 232.486 33.195, 232.080 30.747, 230.334 27.500 C 227.730 22.658, 223.488 18.501, 219.685 17.064 C 216.595 15.896, 207.376 15.744, 205 16.820 M 62.711 32.750 C 60.159 39.213, 57.782 45.288, 57.429 46.250 C 56.841 47.850, 57.736 48, 67.867 48 L 78.949 48 76.095 40.250 C 71.856 28.737, 68.574 21.004, 67.925 21.002 C 67.609 21.001, 65.263 26.287, 62.711 32.750 M 11 52.099 L 11 64.199 20.083 63.849 C 28.892 63.511, 29.253 63.402, 32.083 60.234 C 34.440 57.595, 35 56.055, 35 52.207 C 35 43.518, 30.109 40, 18.032 40 L 11 40 11 52.099" stroke="none" fill="#ad986f" fill-rule="evenodd"/></svg>